<?xml version="1.0" encoding="utf-8"?>
<!-- Generator: Adobe Illustrator 18.1.1, SVG Export Plug-In . SVG Version: 6.00 Build 0)  -->
<svg version="1.2" baseProfile="tiny" id="Réteg_1"
	 xmlns="http://www.w3.org/2000/svg" xmlns:xlink="http://www.w3.org/1999/xlink" x="0px" y="0px" viewBox="0 0 200 200"
	 xml:space="preserve">
<path fill="#D1D1D1" d="M190.5,0c6.1,16.2,9.4,33.7,9.4,51.9c0,81.4-66.3,147.9-147.3,147.9c-18.6,0-36.3-3.3-52.5-9.3
	C0,190.5,0,65.1,0,0 M51.9,144.4c1.5-1.8,2.5-2.8,3.4-3.7c12.9-18.5,26.2-37,38.8-55.5c4.6-6.5,8-13.9,11.7-21
	c5.9-11.1,11.4-22.2,12-34.8c0.6-10.6-1.2-20.5-4.8-29.4L0,0l0,67.7c1.6,3,3.3,6,5.1,8.9c10.8,17.9,22.8,34.8,34.5,52.1
	C43,133.9,47.3,138.8,51.9,144.4z"/>
<path fill="#D1D1D1" d="M8.2,29.1C8.4,18,12.4,7.9,18.9,0l69.8,0C95.2,7.9,99,18.1,99,29.1c0,27.2-19,43.1-39,45.3
	C26.3,78.1,7.6,52.9,8.2,29.1z"/>
</svg>
