<?xml version="1.0" encoding="utf-8"?>
<!-- Generator: Adobe Illustrator 18.1.1, SVG Export Plug-In . SVG Version: 6.00 Build 0)  -->
<svg version="1.2" baseProfile="tiny" id="Réteg_1"
	 xmlns="http://www.w3.org/2000/svg" xmlns:xlink="http://www.w3.org/1999/xlink" x="0px" y="0px" viewBox="0 0 200 200"
	 xml:space="preserve">
<path fill="#D1D1D1" d="M125.6,125c8.1-30.1,15.9-59.3,23.9-89c-20.3,9.6-40.7,19.2-61,28.8C100.8,85,113,104.8,125.6,125z M0,66.7
	C10.5,61,21,55.3,31.5,49.5C20.9,34.3,10.5,19.3,0,4l0-4l4.9,0c12,17.3,24,34.8,36.1,52.1c4.1,5.9,9.4,10,16.3,12.2
	c8.1,2.5,15.7,0.9,23-2.6c17.2-8,34.1-16.1,51.3-24.2c4.5-2.1,8.7-4.3,13.4-6.3C106,20.7,67.4,10.4,28.7,0l157.4,0
	c14.2,29.9,18,65,7.8,99.6c-21.1,72-98.2,117-174.4,94.8c-6.7-2-13.2-4.4-19.4-7.3l0-91.5c40,10.7,79.7,21.4,119.8,32.1
	c-12.4-20.2-24.4-40.3-36.9-60.2c-19.4,8.3-35.4,4.1-48-12.9C23.2,61,11.6,67.3,0,73.6L0,66.7z"/>
</svg>
