<?xml version="1.0" encoding="utf-8"?>
<!-- Generator: Adobe Illustrator 18.1.1, SVG Export Plug-In . SVG Version: 6.00 Build 0)  -->
<svg version="1.2" baseProfile="tiny" id="Réteg_1"
	 xmlns="http://www.w3.org/2000/svg" xmlns:xlink="http://www.w3.org/1999/xlink" x="0px" y="0px" viewBox="0 0 200 200"
	 xml:space="preserve">
<path fill="#D1D1D1" d="M163.5,152C121.2,199.4,55.2,212.3,0,188.7L0,0h188.4C209.7,49.6,201.8,108.9,163.5,152z M57.8,0
	c-3.7,2.1-5.9,3.4-9.4,5.7C43.2,9,37.6,13.1,33,17.1c-4.1,3.2-7.7,7-11.6,10.7c-3.2,3.1-5.6,6.8-8.2,10.9c-4.9,7.1-9,13.6-13.2,21
	l0,81.8c3.2,3.5,7.1,6.8,11,9.7c0.1,0.3,0.4,0.2,0.5,0.4c4.5-16.9,9.4-33.6,14.1-50.3c-0.1-0.3-0.4-0.2-0.5-0.4
	c-2.3-2.1-4.3-4-5.5-6.8c-1.7-3.5-1.7-7.1-0.1-10.5c0.6-1.5,1.8-2.9,2.7-4.4c3.4-5,7-9.5,10.8-14c9.4-11.7,19-22.8,28.7-34.3
	c0.2-0.4,0.7-0.6,0.8-0.9c2.5-1.9,4.6-3.4,7.6-4.3c1.9-0.5,3.8-1,5.8-0.6c2.7,0.1,5.1,1.5,7.3,3.1c0.5,0.4,1.3,1,2,1.9
	c0.3-0.1,0.8-0.3,1-0.4c2.3-0.9,4.5-2.2,6.9-3.1c3.4-1.4,6.6-3,9.7-4.3c6.9-3.1,13.3-5.7,20.2-8.8c3.1-1.3,5.6-2.6,8.7-3.8
	c0.3-0.1,0.5-0.2,0.5-0.2c-0.1-0.3-0.1-0.3-0.2-0.5c-1.4-2.7-2.7-6-4.5-8.9H57.8z M29.3,152.5c0.3-0.1,1,0.2,1.1-0.2
	c1.1-1,2.3-1.8,2.4-3.7c2.5-9.4,5.5-18.2,7.6-27.8c0.4-1.3,0.6-3,1-4.3c0.2-1.6-0.1-3.3-0.5-4.9c-0.1-0.3-0.3-0.8-0.7-0.9
	c-2.9-2.7-6-5.1-8.8-7.5c-0.1-0.3-0.4-0.2-0.5-0.4c-0.3,0.7-14.9,51.2-14.6,52c0,0,0.3-0.1,0.4,0.2c2.9-0.3,5-1.1,7.8-1.4
	c1.3,0.4,2.6-0.2,3.7-0.6C28.5,152.8,28.8,152.7,29.3,152.5z M135.5,14.1c-0.1-0.3-0.1-0.3-0.5-0.4c-0.3,0.1-0.5,0.2-0.8,0.3
	c-8.4,3.7-16.9,7.2-25.1,10.8c-5.2,2.1-9.9,4.4-15.3,6.8c-1.3,0.5-2.7,1.4-4,1.9c-0.8,0.3-0.8,0.9-0.5,1.7c0.1,0.3,0.3,0.8,0.5,1.3
	c0.7,0.9,1.5,2.1,2.4,2.9c0.9,0.8,2.3,2.1,3.7,2.4c1.5,0.6,3.1,0.9,4.5,1.5c0.4,0.2,0.6,0,1.1-0.2c3.1-1.3,5.9-2.4,9.2-4
	c7.5-3.1,14.8-6.4,22.1-9.3c0.8-0.3,1.4-0.9,2.3-1.8c0.2-0.4,0.6-0.8,0.6-1.5c1.3-3.5,1.5-6.6,0.7-10.2c-0.1-0.3-0.2-0.5-0.1-0.9
	C135.9,15.1,135.7,14.6,135.5,14.1z"/>
</svg>
