<?xml version="1.0" encoding="utf-8"?>
<svg version="1.2" baseProfile="tiny"
	 xmlns="http://www.w3.org/2000/svg" xmlns:xlink="http://www.w3.org/1999/xlink" x="0px" y="0px" viewBox="0 0 200 200"
	 xml:space="preserve">
<g id="belso" fill='#FCFBF8'>
	<path d="M83.4,80c3.4,0,6,0,8.6,0c6,0,11.8,0,17.8-0.2c1.8,0,2.4,0.6,2.6,2.2c0.4,2.2,0.8,4.6,1.4,7.6
		c-1.2-0.8-2-1-2.2-1.6c-1.8-4.2-5-5.6-9.4-5.4c-2.4,0.2-4.8,0-7.2,0c0,5.2,0,10.2,0,15.4c3.2,0,6.2,0,9.2,0c1.8,0,2-1.6,2.2-2.8
		c0.4-1.2,0.6-2.2,2.2-1.6c0,4,0,7.8,0,11.8c-1.4,0.4-2-0.2-2.2-1.4c-0.4-2.4-1.6-3.4-4.2-3.2c-2.4,0.2-4.8,0-7.4,0
		c0,4.8,0,9.6,0,14.2c0,0.6,1.4,1.4,2,1.6c3,0.2,6,0.4,9,0.2c3.6-0.2,5.6-2.6,7.2-5.4c0.6-1.2,1.2-2,2.8-0.8
		c-0.8,2.6-1.4,5.2-2.2,7.8c-0.2,0.6-1,1.6-1.6,1.6c-9.4,0-18.6,0-27.8,0c-0.6-1.6,0.2-2,1.4-2.2c3.2-0.8,3.2-0.8,3.2-4.2
		c0-8.8,0-17.8,0-26.6c0-3.6,0-3.6-3.4-4.6C84.8,81.8,84.4,81,83.4,80z"/>
	<path d="M106.2,133c0.4-0.2,0.6-0.4,0.6-0.4c5.6,0.8,9.4-2,12.8-5.8c3-3.4,6.4-6.6,9.6-9.6c2.6-2.4,4.2-5.2,3.8-8.8
		c0-0.6,0-1,0-1.6c5.6,2.6,6.8,5.8,2.6,11c-2.2,2.6-4.8,4.8-7.2,7.4c-3.4,3.4-6.6,6.8-10.2,10c-1.4,1.2-3.4,2-5.2,2.4
		C109.4,138.4,108.2,135,106.2,133z"/>
	<path d="M133,93c0-1.2,0-2.2,0-3.2c0-2.6-1-4.8-2.8-6.6c-4.4-4.2-8.6-8.4-12.8-12.8c-2.4-2.6-5.2-4-8.8-3.6
		c-0.8,0-1.4,0-2.2,0c2.6-6,7.4-6.8,12-2.4c5.8,5.4,11.6,11,17,16.8C139.4,85.6,139.8,89.6,133,93z"/>
	<path d="M67,106c0,2.2-0.4,3.8,0,5.4c0.6,1.8,1.6,3.6,2.8,5c4,4.2,8.4,8.2,12.4,12.4c2.6,2.8,5.6,4.2,9.4,3.8
		c0.6,0,1,0,1.6,0c0.2,0,0.2,0.2,0.4,0.2c-3,6-7.4,6.2-11.8,2.2c-6-5.6-11.8-11.4-17.6-17.4c-1.2-1.2-1.8-3-2.2-4.6
		C61,109.2,64.4,108.2,67,106z"/>
	<path d="M93.8,66.8c-7.4-1.8-11,3.4-15.2,7.6c-2.6,2.6-5.2,5.2-7.8,7.8c-2.8,2.6-4.4,5.4-4,9.2c0,0.4,0,1,0,1.6
		c-7-3.4-5.6-8.4-2-11.8c5.6-5.4,10.8-11,16.4-16.2c1.4-1.4,3.4-2.4,5.4-2.8C90.6,60.8,91.8,64.2,93.8,66.8z"/>
</g>
<g id="kulso" fill="#FCFBF8">
	<g>
		<path d="M145,151.4c-1-9.6-8.8-15.6-17.8-14c-7.6,1.4-11.4,9.2-7.6,15.8c1.2,2.2,3.2,3.6,5.8,3.8
			c2.6,0.2,5.4-1.4,6-3.8c0.6-2.4-0.6-5-3-6.2c-2.4-1.2-4.8-0.4-6.6,2.2c-0.2,0.2-0.4,0.4-0.6,0.8c-0.6-3.8,1.4-7,5-8
			c5.2-1.6,11.2,0.6,14.6,6c2.6,4.2,3.4,8.6,0.6,12.8c-3,4.4-7.4,5.8-12.4,4.8c-4.4-0.8-7.2-3.8-9.4-7.6c-2.2-3.6-4.8-6.6-8.4-8.8
			c-0.6-0.4-1.2-1-1.2-1.6c-0.6-6.8-5.2-11.2-10-15.8c-1.4,1.6-2.8,3-4.2,4.4c-2.8,3.4-5.4,6.8-5.4,11.4c0,0.4-0.6,1-1.2,1.4
			c-3.6,2.2-6.4,5.2-8.6,9c-1.4,2.2-3.4,4.4-5.6,6c-5.6,3.8-15,0.8-17.2-5.2c-3-8.8,5.2-18.8,14.4-17.4c4.6,0.6,7.4,4.4,6.6,8.4
			c-0.4-0.4-0.6-0.8-0.8-1.2c-1.6-2-3.6-2.8-6-1.8c-2.2,0.8-3.6,2.8-3.6,5.2c0,2.2,1.6,4,4,4.6c2.6,0.6,4.8,0,6.6-1.8
			c4.6-4.8,3.4-13-2.6-16.2c-3.4-1.8-6.8-2-10.4-1c-9.4,2.6-13.8,13.4-9.6,23c3,7,9.6,10.4,17,9c3.8-0.8,6.8-2.8,9.2-6.2
			c0.2,1,0.4,1.8,0.6,2.4c0.4,4.4,1.8,8.4,4.2,12.2c3.8,6.4,7.8,12.6,10.4,19.8c0.4,0.8,1.6,2,2.4,2c1-0.2,2-1.2,2.6-2.2
			c3.2-6,6.2-12.2,9.6-18.2c2.4-4.4,4.6-9,5-14c0-0.6,0.2-1.2,0.4-2c0.4,0.6,0.8,0.8,1,1.2c3.4,4,7.8,5.6,12.8,5
			C140.2,169,146.2,160.8,145,151.4z M95.6,141.2c1.2-1.6,2.8-3,4.6-5c1.8,2,3.4,3.6,4.8,5.6c2,2.8,2.2,6,0.4,9
			c-1.6,2.6-3.4,5.2-5.4,8.4c-2-3.4-4.2-6.4-5.8-9.6C92.8,146.8,93.6,143.8,95.6,141.2z M100.2,192.8c-8.4-7-11-24-5-34.2
			c0.2,0,0.6-0.2,0.8-0.2c1,2.6,2,5,3,7.6c0.2,0.6,0.8,1,1.2,1.6c0.4-0.6,0.8-1,1.2-1.6c1-2.4,2-5,3.2-8
			C110.6,169,109.2,181.6,100.2,192.8z"/>
		<path d="M100,139.2c-7.4,5.6-5.8,11,0.2,17.4C105.8,149.2,107.2,145,100,139.2z"/>
	</g>
	<g>
		<path d="M151,55c-9.6,1-15.6,8.8-14,17.8c1.4,7.6,9.2,11.4,15.8,7.6c2.2-1.2,3.6-3.2,3.8-5.6
			c0.2-2.6-1.6-5.4-3.8-6c-2.4-0.6-5,0.6-6.2,3s-0.4,4.8,2.2,6.6c0.2,0.2,0.4,0.4,0.8,0.6c-3.8,0.6-7-1.4-8.2-5
			c-1.6-5.2,0.6-11.2,6-14.4c4.2-2.6,8.6-3.4,13-0.6c4.4,2.8,5.8,7.4,4.8,12.4c-0.8,4.4-3.8,7.2-7.6,9.2c-3.6,2-6.6,4.8-8.8,8.4
			c0,0.4-0.8,1-1.4,1c-7,0.6-11.2,5-16,9.8c1.6,1.4,3,2.8,4.4,4c3.4,2.8,6.8,5.4,11.6,5.4c0.4,0,1,0.6,1.4,1.2
			c2.4,3.6,5.4,6.4,9,8.6c2.2,1.4,4.4,3.4,6,5.6c4,5.6,0.8,14.8-5.2,17c-8.8,3-18.8-5.2-17.6-14.4c0.6-4.6,4.4-7.4,8.6-6.6
			c-0.4,0.4-0.8,0.6-1.2,0.8c-2,1.6-2.8,3.6-1.8,6c0.8,2.2,3,3.6,5.2,3.6s4-1.6,4.6-4c0.8-2.6,0-4.8-1.8-6.6
			c-4.8-4.6-13.2-3.2-16.4,2.6c-1.8,3.4-2,6.8-1,10.4c2.6,9.2,13.6,13.6,23.2,9.4c7-3,10.4-9.6,9-17c-0.8-3.8-2.8-6.6-6.2-9
			c1-0.2,1.8-0.4,2.4-0.6c4.4-0.4,8.4-1.8,12.2-4.2c6.4-3.8,12.8-7.8,20-10.4c0.8-0.4,2-1.6,2-2.4c-0.2-1-1.2-2-2.2-2.4
			c-6-3.2-12.4-6.2-18.4-9.4c-4.4-2.4-9-4.4-14.2-5c-0.6,0-1.2-0.2-2-0.4c0.6-0.4,0.8-0.8,1.2-1c4-3.2,5.8-7.6,5.2-12.8
			C168.8,59.8,160.6,53.8,151,55z M140.8,104.2c-1.6-1.2-3-2.8-5-4.6c2-1.8,3.8-3.4,5.6-4.8c2.8-2,6-2.2,9.2-0.4
			c2.8,1.6,5.4,3.4,8.4,5.2c-3.4,2-6.4,4.2-9.6,5.8C146.4,106.8,143.4,106,140.8,104.2z M192.8,99.6c-7,8.4-24.2,10.8-34.6,5
			c0-0.2-0.2-0.6-0.2-0.8c2.6-1,5-2,7.6-3c0.6-0.2,1-0.8,1.6-1.2c-0.6-0.4-1-0.8-1.6-1.2c-2.4-1-5-2-8-3.2
			C168.6,89.2,181.4,90.6,192.8,99.6z"/>
		<path d="M138.6,99.6c5.6,7.2,11.2,5.8,17.4,0C149,93.8,144.6,92.6,138.6,99.6z"/>
	</g>
	<g>
		<path d="M30.2,68.6c-0.6,5,1,9.4,5.2,12.8c0.4,0.2,0.6,0.6,1.2,1c-0.8,0.2-1.4,0.4-2,0.4c-5.2,0.4-9.6,2.4-14.2,5
			C14.4,91,8.2,94,2,97.2c-1,0.4-2,1.6-2.2,2.4c0,0.8,1,2,2,2.4c7.2,2.4,13.4,6.6,20,10.4c3.8,2.2,7.8,3.8,12.2,4.2
			c0.8,0,1.4,0.2,2.4,0.6c-3.4,2.4-5.4,5.4-6.2,9c-1.4,7.4,2,13.8,9,17c9.6,4.2,20.6-0.2,23.2-9.4c1-3.6,0.8-7-1-10.4
			c-3.2-6-11.6-7.4-16.4-2.6c-1.8,1.8-2.6,4-1.8,6.6c0.6,2.4,2.4,3.8,4.6,4c2.4,0,4.4-1.4,5.2-3.6c0.8-2.2,0.2-4.4-1.8-6
			c-0.4-0.2-0.8-0.4-1.2-0.8c4.2-0.8,7.8,2,8.6,6.6C60,136.8,49.8,145,41,142c-6.2-2.2-9.2-11.4-5.2-17c1.6-2.2,3.8-4.2,6-5.6
			c3.6-2.2,6.6-5,9-8.6c0.4-0.6,1-1.2,1.4-1.2c4.8,0,8.2-2.6,11.6-5.4c1.4-1.2,2.8-2.6,4.4-4c-4.6-4.8-9-9.4-16-9.8
			c-0.6,0-1.4-0.6-1.6-1.2c-2.2-3.6-5.2-6.4-8.8-8.4S35,76,34.2,71.6c-0.8-5,0.6-9.6,4.8-12.4c4.2-2.8,8.8-2,13,0.6
			c5.4,3.2,7.6,9.2,6,14.4c-1.2,3.6-4.4,5.6-8.2,5c0.4-0.2,0.6-0.4,0.8-0.6c2.4-1.6,3.2-4,2.2-6.6c-1-2.4-3.8-3.6-6.2-3
			c-2.2,0.6-4,3.4-3.8,6s1.6,4.4,3.8,5.6c6.6,3.8,14.4,0,15.8-7.6c1.6-9-4.4-16.6-14-17.8C39.4,53.8,31.2,59.6,30.2,68.6z
			 M50.6,105.4c-3.2-1.6-6.2-3.6-9.6-5.8c3-2,5.6-3.8,8.4-5.2c3-1.8,6.2-1.6,9.2,0.4c1.8,1.2,3.6,3,5.6,4.8c-2,1.8-3.4,3.4-5,4.6
			C56.6,106,53.6,106.8,50.6,105.4z M42.4,95.4c-3,1.2-5.6,2.2-8,3.2c-0.6,0.2-1.2,0.8-1.6,1.2c0.6,0.4,1,0.8,1.6,1.2
			c2.6,1,5,2,7.6,3c0,0.2-0.2,0.6-0.2,0.8c-10.2,5.8-27.4,3.4-34.6-5C18.6,90.4,31.4,89.2,42.4,95.4z"/>
		<path d="M44,99.4c6.4,6,11.8,7.4,17.4,0C55.4,92.4,51,93.8,44,99.4z"/>
	</g>
	<g>
		<path d="M55,48.6c1,9.6,8.8,15.6,17.8,14c7.6-1.4,11.4-9.2,7.6-15.8c-1.2-2.2-3.2-3.6-5.8-3.8
			c-2.6-0.2-5.4,1.4-6,3.8c-0.6,2.4,0.6,5,3,6.2s4.8,0.4,6.6-2.2c0.2-0.2,0.4-0.4,0.6-0.8c0.6,3.8-1.4,7-5,8
			c-5.2,1.6-11.2-0.6-14.6-6c-2.6-4.2-3.4-8.6-0.6-12.8c3-4.4,7.4-5.8,12.4-4.8c4.4,0.8,7.2,3.8,9.4,7.6c2.2,3.6,4.8,6.6,8.4,8.8
			c0.6,0.4,1.2,1,1.2,1.6c0.6,6.8,5.2,11.2,10,15.8c1.4-1.6,2.8-3,4.2-4.4c2.8-3.4,5.4-6.8,5.4-11.4c0-0.4,0.6-1,1.2-1.4
			c3.6-2.2,6.4-5.2,8.6-9c1.4-2.2,3.4-4.4,5.6-6c5.6-3.8,15-0.8,17.2,5.2c3,8.8-5.2,18.8-14.4,17.4c-4.6-0.6-7.4-4.4-6.6-8.4
			c0.4,0.4,0.6,0.8,0.8,1.2c1.6,2,3.6,2.8,6,1.8c2.2-0.8,3.6-2.8,3.6-5.2c0-2.2-1.6-4-4-4.6c-2.6-0.6-4.8,0-6.6,1.8
			c-4.6,4.8-3.4,13,2.6,16.2c3.4,1.8,6.8,2,10.4,1c9.4-2.6,13.8-13.4,9.6-23c-3-7-9.6-10.4-17-9c-3.8,0.8-6.8,2.8-9.2,6.2
			c-0.2-1-0.4-1.8-0.6-2.4c-0.4-4.4-1.8-8.4-4.2-12.2c-3.8-6.4-7.8-12.6-10.4-19.8C102,1,100.8,0,100,0c-1,0.2-2,1.2-2.6,2.2
			c-3.2,6-6.2,12.2-9.6,18.2c-2.4,4.4-4.6,9-5,14c0,0.6-0.2,1.2-0.4,2c-0.4-0.6-0.8-0.8-1-1.2c-3.4-4-7.8-5.6-12.8-5
			C59.8,31,53.8,39.2,55,48.6z M104.4,58.8c-1.2,1.6-2.8,3-4.6,5c-1.8-2-3.4-3.6-4.8-5.6c-2-2.8-2.2-6-0.4-9
			c1.6-2.6,3.4-5.2,5.4-8.4c2,3.4,4.2,6.4,5.8,9.6C107.2,53.2,106.4,56.2,104.4,58.8z M99.8,7.2c8.4,7,11,24,5,34.2
			c-0.2,0-0.6,0.2-0.8,0.2c-1-2.6-2-5-3-7.6c-0.2-0.6-0.8-1-1.2-1.6c-0.4,0.6-0.8,1-1.2,1.6c-1,2.4-2,5-3.2,8
			C89.4,31,90.8,18.4,99.8,7.2z"/>
		<path d="M100,60.8c7.4-5.6,5.8-11-0.2-17.4C94.2,50.8,92.8,55,100,60.8z"/>
	</g>
</g>
</svg>
