<?xml version="1.0" encoding="utf-8"?>
<svg version="1.2" baseProfile="tiny" id="Réteg_1"
	 xmlns="http://www.w3.org/2000/svg" xmlns:xlink="http://www.w3.org/1999/xlink" x="0px" y="0px" viewBox="0 0 650 760"
	 xml:space="preserve">
<g id="felirat">
	<path fill="#FFFFFF" d="M66.8,623.2c-0.6-0.4-1.1-0.9-1.7-1.3c-1.4,1.2-2.8,2.4-4.2,3.6c-3.6,3.2-6.8,8.3-10.9,9.2
		c-6.7,1.5-13.9,0.5-20.9,0c-1.4-0.1-3.6-2.6-3.7-4.1c-0.3-9.1-0.2-18.2-0.2-27.9c5.3,0,10,0.2,14.7-0.1c4.5-0.2,7.2,1.3,8.2,5.9
		c0.3,1.5,1.9,2.7,3,4c0.4-0.3,0.7-0.6,1.1-0.8c0-7.5,0-14.9,0-22.4c-0.5-0.2-1-0.5-1.5-0.7c-0.9,1.4-1.7,3-2.8,4.3
		c-1.6,1.8-3.3,4.8-5.2,5c-5.6,0.7-11.3,0.2-17.2,0.2c0-10.5,0-20.5,0-30.8c5.5,0,10.7,0,15.8,0c7.3-0.1,13,2.3,16.1,9.5
		c0.6,1.5,2.6,2.4,4,3.6c0.1-5.1-0.2-9.1-1.3-12.9c-0.5-1.8-2.6-4.4-4-4.5c-17.1-0.3-34.2-0.2-51.3-0.2c-0.3,0.5-0.6,1.1-0.9,1.6
		c1.3,1,2.5,2.6,4,2.9c4.7,0.9,6,3.4,5.9,8c-0.2,17.9-0.2,35.8,0,53.8c0.1,4.5-1.1,7.2-5.8,8.2c-1.4,0.3-2.6,2-3.9,3
		c0.3,0.5,0.6,0.9,0.9,1.4c17.7,0,35.4,0,53-0.1c1.4,0,3.6-1.1,4-2.1C63.9,634.1,65.3,628.6,66.8,623.2z"/>
	<path fill="#FFFFFF" d="M268.6,589c-6.2,0.4-3.5,10.5-10.9,9.3c-5.1-0.8-10.5-0.2-15.7-0.2c0-10.8,0-20.7,0-30.9
		c4.7,0,8.9,0.1,13,0c8.4-0.3,15.5,1.4,19.2,10.2c0.5,1.2,2.6,1.8,4.6,3.2c-0.9-5.2-1.5-8.7-2-12.3c-0.5-4-2.4-5.9-6.8-5.7
		c-7.8,0.3-15.6,0.1-23.4,0.1c-8.5,0-17,0-25.5,0c-0.3,0.6-0.5,1.2-0.8,1.8c1.4,1,2.6,2.4,4.1,2.8c4.1,1,5.8,3,5.8,7.6
		c-0.3,18.3-0.2,36.6,0,54.9c0,4.1-1.2,6.4-5.2,7.4c-1.6,0.4-3,2-4.5,3c2.6,1.2,4.3,1.3,6,1.2c12.4-0.2,24.7-0.9,37.1-0.4
		c14.6,0.5,14.7,1,18.3-13.4c0.4-1.5-0.1-3.3-0.3-5c-1.4,1-2.9,1.8-4.2,2.9c-3.8,3.2-7.1,8.4-11.4,9.4c-6.4,1.6-13.5,0.4-20.3,0
		c-1.4-0.1-3.7-2.2-3.8-3.4c-0.3-9.4-0.2-18.9-0.2-28.7c5.4,0,10.2,0.2,14.9,0c4.3-0.2,6.8,1.3,7.8,5.7c0.4,1.5,1.8,2.8,2.7,4.2
		c0.5-0.2,1-0.5,1.4-0.7C268.6,604.3,268.6,596.9,268.6,589z"/>
	<path fill="#FFFFFF" d="M141.8,582.9c-0.9-6.4-1.4-11.3-2.5-16c-0.3-1.3-2.4-3-3.8-3.2c-7.3-1-14.7-2-22.1-2.1
		c-19.5-0.2-34.3,11.8-38.5,30.7c-5.4,24.7,7.7,46,31.1,48.7c9.9,1.2,20.1-0.3,30.2-0.8c1.1,0,2.8-1,3.1-1.9
		c1.8-5.9,3.2-11.8,4.8-17.8c-0.6-0.4-1.2-0.8-1.9-1.2c-1.5,1.7-3.5,3.2-4.4,5.2c-2.4,5-5.3,9.5-10.9,10.9
		c-10.2,2.7-19.7,1.2-27.7-6c-12.9-11.6-16.6-35.1-7.7-50c5.7-9.6,14.7-13.1,25.6-13.3c10-0.1,16.8,3.7,19.8,13.7
		C137.2,581.1,139.4,581.6,141.8,582.9z"/>
	<path fill="#FFFFFF" d="M554.9,583.2c-1-6.2-2-10.3-2.2-14.4c-0.2-3.2-1.3-5-4.6-5.3c-7.2-0.6-14.4-1.8-21.5-1.9
		c-19.7-0.2-34.2,11.4-38.6,30.6c-5.5,23.6,6.8,45.1,29.2,48.5c10.5,1.6,21.6-0.1,32.4-0.4c0.9,0,2.4-0.9,2.7-1.7
		c1.8-5.9,3.3-11.8,5-17.8c-0.6-0.4-1.1-0.8-1.7-1.2c-1.4,1.3-3.2,2.3-4.1,3.9c-7.5,13.4-20.9,17.4-34.1,9.8
		c-18.1-10.4-23.8-40.7-10.6-56.9c6.7-8.3,15.9-10.6,26.1-10c8.9,0.5,14.4,5.1,17.1,13.5C550.3,581.1,552.4,581.6,554.9,583.2z"/>
	<path fill="#FFFFFF" d="M355,582.8c0.5-0.5,1-0.9,1.6-1.4c-0.7-4.9-1.1-9.8-2.2-14.5c-0.3-1.3-2.4-2.9-3.9-3.1
		c-7.7-0.9-15.5-2-23.3-2c-16,0-27.6,7.8-34.4,22.2c-10.6,22.8-0.6,50.1,21.9,55.5c11.8,2.8,24.9,0.8,37.4,0.8c0.8,0,2.1-1.1,2.4-2
		c1.7-5.7,3.2-11.5,4.7-17.3c-0.6-0.4-1.2-0.8-1.8-1.2c-1.5,1.6-3.4,3-4.4,4.9c-2.5,4.9-5.3,9.5-10.9,11c-9.5,2.6-18.6,1.6-26.4-4.9
		c-11.4-9.5-14.7-22.3-13.5-36.5c1.4-17.6,13-27.9,30.7-27.9c8.9,0,15.4,3.3,18.6,12.1C352,580.1,353.8,581.3,355,582.8z"/>
	<path fill="#FFFFFF" d="M396.8,566.7c0,3.6,0,5.8,0,8c0,17.5-0.2,35.1,0.1,52.6c0.1,5.7-1.6,9-7.5,9.9c-1.5,0.2-2.8,1.8-4.2,2.7
		c0.3,0.4,0.5,0.8,0.7,1.2c11,0,22,0,33,0c0.2-0.5,0.4-1.1,0.6-1.6c-1.5-0.8-2.9-2.1-4.5-2.3c-5-0.7-7-3.1-6.9-8.4
		c0.3-18.5,0.1-37,0.1-55.4c0-1.8,0.2-3.7,0.3-5.4c15.6-2.1,18.7-0.9,27,10.3c0.8,1.1,2.7,1.3,4.9,2.3c-1.1-5.5-1.6-9.7-3-13.6
		c-0.6-1.7-3.2-4-4.9-4c-20.2-0.3-40.4-0.2-60.6-0.1c-1.5,0-4,1.3-4.4,2.5c-1.4,4.6-2.2,9.4-3.2,14.2c0.5,0.3,1,0.6,1.6,0.8
		c3.9-3.9,7.1-9.3,11.8-11.3C383.1,566.6,389.7,567.4,396.8,566.7z"/>
	<path fill="#FFFFFF" d="M154,640c0.2,0.4,0.5,0.9,0.7,1.3c1.1,0.1,2.2,0.2,3.3,0.2c16.2,0,32.3,0,48.5,0.2c3.5,0,5.3-0.7,5.6-4.5
		c0.3-3.4,1.4-6.7,1.7-10.1c0.1-1.6-0.7-3.2-1.1-4.9c-1.1,1.1-2.8,2-3.3,3.3c-3.1,7.5-8.8,10.7-16.6,10.5c-3.6-0.1-7.2-0.1-10.9-0.1
		c-5,0-7-2.2-6.9-7.4c0.2-17.3,0.3-34.7,0-52c-0.1-5.7,2-8.5,7.5-9.2c1.5-0.2,2.9-1.8,4.3-2.7c-0.3-0.5-0.6-0.9-0.9-1.4
		c-10.4,0-20.7,0-31.1,0c0.5,2.2,1.6,3.8,2.9,4c4.8,0.8,6,3.5,6,8c-0.2,18.1-0.2,36.2,0,54.3c0,4.3-1.1,6.8-5.5,7.8
		C156.7,637.5,155.4,639,154,640z"/>
	<path fill="#FFFFFF" d="M476.3,641.1c-2-1.9-3.1-3.7-4.4-3.9c-5-0.8-5.7-4.1-5.6-8.3c0.1-17.9,0.1-35.8,0-53.8c0-4.4,1-7.3,5.9-8.1
		c1.3-0.2,2.3-1.9,3.4-2.9c-0.3-0.4-0.5-0.8-0.8-1.2c-9.5,0-18.9,0-28.4,0c-0.3,0.4-0.6,0.8-0.9,1.2c1.3,1,2.4,2.7,3.9,3
		c4.3,0.9,5.3,3.4,5.3,7.4c-0.1,18.3-0.1,36.6,0,54.9c0,4.2-1,6.9-5.6,7.8c-1.3,0.3-2.4,2-4.5,3.8
		C455.9,641.1,465.3,641.1,476.3,641.1z"/>
	<path fill="#FFFFFF" d="M11.3,667.7c-0.5,0.1-1,0.3-1.6,0.4c-0.2,0.7-0.6,1.4-0.6,2.1c0,21.7-0.1,43.4,0,65.2
		c0,1.1,1.3,2.2,1.9,3.3c0.6-1.2,1.5-2.4,1.6-3.6c0.2-2.8,0-5.7,0.1-8.6c0.3-7.6-0.1-15.3,1.2-22.8c1.6-9.6,9.8-15,19.2-14.1
		c8.2,0.8,12.4,6.2,12.6,16.7c0.1,9.5,0,19.1,0.1,28.6c0,1.2,1,2.5,1.5,3.7c0.7-1.3,2-2.5,2-3.8c0.2-10.1,0.2-20.2,0-30.3
		c-0.2-9.5-3.6-14.9-10.4-17.3c-8.4-2.9-17.2-0.7-22.9,5.8c-0.9,1-1.8,2-3.3,3.6c0-9,0.1-16.8-0.1-24.6
		C12.7,670.7,11.8,669.2,11.3,667.7z"/>
	<path fill="#FFFFFF" d="M616.9,733.6c-1.3-2.7-2-4.2-2.6-5.7c-5-12.3-10-24.7-15.2-37c-0.7-1.6-2.7-2.6-4.1-3.9
		c-0.4,0.4-0.9,0.9-1.3,1.3c6.2,14.7,12.3,29.5,18.5,44.2c4.2,10-0.5,19.1-11,21.3c-1,0.2-1.8,1.1-3.3,2c8.4,2.7,13.5,0.9,16.3-5.9
		c4.6-10.9,8.7-21.9,13-32.9c3.8-9.6,7.4-19.3,11.2-29c-0.5-0.4-1.1-0.8-1.6-1.2c-1.2,1.2-2.9,2.2-3.6,3.6
		c-1.5,3.3-2.6,6.8-3.8,10.1C625.4,711.2,621.4,721.8,616.9,733.6z"/>
	<path fill="#FFFFFF" d="M235,687.3c-0.7,0.2-1.5,0.3-2.2,0.5c-0.2,0.5-0.5,1.1-0.5,1.6c-0.1,9.7-0.1,19.4-0.1,29.1
		c0,5.9,0,11.8,0.1,17.7c0,0.9,1,1.7,1.5,2.6c0.7-0.9,1.8-1.6,2-2.6c0.4-1.4,0.1-3,0.1-4.5c0.3-8.9-0.2-18,1-26.8
		c1.4-10.2,9.7-16.1,19.5-15.1c8.3,0.8,12.3,6.3,12.5,17.4c0.1,9.1,0,18.3,0.1,27.4c0,1.4,1,2.8,1.6,4.2c0.7-1.5,1.9-2.9,2-4.4
		c0.2-10.1,0.2-20.2,0-30.3c-0.1-7.3-2.3-13.8-9.9-16.4c-8.3-2.9-16.1-1.8-22.7,4.6c-1.2,1.2-2.3,2.5-3.6,3.9
		C235.9,692.7,235.4,690,235,687.3z"/>
	<path fill="#FFFFFF" d="M561.7,687.7c-0.6-0.2-1.2-0.3-1.8-0.5c-0.5,1.5-1.4,3.1-1.4,4.6c-0.1,7.4,0.2,14.9-0.2,22.3
		c-0.2,3.9-0.8,8-2.2,11.7c-2.9,7.9-11.1,12.1-19.4,10.7c-7.2-1.2-10.9-6.3-11.3-15.6c-0.1-2.1-0.1-4.2-0.1-6.3
		c0-7.6,0.1-15.3-0.1-22.9c0-1.5-0.9-3-1.4-4.5c-0.5,0.2-0.9,0.3-1.4,0.5c0,13.4-0.5,26.9,0.2,40.3c0.3,5.9,4.7,9.7,10.8,11.2
		c10.2,2.5,18.3-0.5,24.3-9.3c0.7,3.3,1.3,6.2,1.8,9.2c0.7-0.2,1.4-0.3,2.1-0.5C561.7,721.6,561.7,704.6,561.7,687.7z"/>
	<path fill="#FFFFFF" d="M592,736.8c-1-0.5-1.9-1.3-2.9-1.3c-6.2-0.1-8.2-3.6-8.1-9.2c0.1-5.7,0-11.4,0-17.1c0-6,0-12,0-17.6
		c4.4-0.7,7.8-1.3,11.2-1.8c-0.1-0.7-0.2-1.4-0.3-2.1c-3.5-0.2-7-0.4-10.9-0.6c0-4.3,0.2-8.1-0.1-11.8c-0.1-1.3-1.4-2.5-2.1-3.8
		c-0.6,1.2-1.7,2.3-1.8,3.6c-0.2,3.9-0.1,7.9-0.1,11.4c-3.6,0.8-6.5,1.5-9.4,2.2c0.2,0.6,0.3,1.2,0.5,1.9c2.8,0.2,5.5,0.4,8.9,0.6
		c0,2.3,0,4.3,0,6.4c0,9.9-0.1,19.8,0,29.7C577,736.6,582,740.2,592,736.8z"/>
	<path fill="#FFFFFF" d="M130.6,697.5c0-2.5,0.3-3.8-0.1-5c-0.5-1.7-1.3-3.3-2-5c-0.5,1.6-1.5,3.2-1.6,4.8
		c-0.1,13.9-0.1,27.8,0,41.7c0,1.6,1.1,3.2,1.6,4.7c0.7-1.7,1.9-3.3,1.9-5c0.2-7.4,0-14.8,0.2-22.3c0.3-11.7,5.5-17.8,16.8-20.3
		c1.1-0.3,2.2-0.9,3.3-1.3c-0.3-0.7-0.5-1.5-0.8-2.2C142.4,687.1,136.4,690.6,130.6,697.5z"/>
	<path fill="#FFFFFF" d="M115.6,713.1c0-7,0.1-14.1-0.1-21.1c0-1.5-1.3-2.9-1.9-4.4c-0.6,1.4-1.8,2.7-1.8,4.1
		c-0.1,14.5-0.1,28.9,0,43.4c0,1.3,1.3,2.5,2.1,3.7c0.6-1.3,1.6-2.7,1.7-4C115.7,727.5,115.6,720.3,115.6,713.1z"/>
	<path fill="#FFFFFF" d="M116.5,673.5c-1-2.2-1.8-3.8-2.6-5.4c-0.7,1.6-2,3.2-2,4.9c-0.1,1.7,1.1,3.5,1.6,5.2
		C114.5,676.6,115.4,675.2,116.5,673.5z"/>
	<path fill="#FFFFFF" d="M66.8,623.2c-1.5,5.4-2.8,10.9-4.7,16.2c-0.4,1.1-2.6,2.1-4,2.1c-17.7,0.1-35.4,0.1-53,0.1
		c-0.3-0.5-0.6-0.9-0.9-1.4c1.3-1,2.4-2.7,3.9-3c4.7-0.9,5.9-3.7,5.8-8.2c-0.2-17.9-0.2-35.8,0-53.8c0.1-4.6-1.2-7.2-5.9-8
		c-1.5-0.3-2.7-1.9-4-2.9c0.3-0.5,0.6-1.1,0.9-1.6c17.1,0,34.2-0.1,51.3,0.2c1.4,0,3.5,2.7,4,4.5c1.1,3.8,1.5,7.8,1.3,12.9
		c-1.4-1.2-3.4-2.1-4-3.6c-3.1-7.2-8.8-9.5-16.1-9.5c-5.1,0.1-10.2,0-15.8,0c0,10.3,0,20.3,0,30.8c5.9,0,11.6,0.4,17.2-0.2
		c1.9-0.2,3.6-3.1,5.2-5c1.1-1.3,1.9-2.8,2.8-4.3c0.5,0.2,1,0.5,1.5,0.7c0,7.5,0,14.9,0,22.4c-0.4,0.3-0.7,0.6-1.1,0.8
		c-1-1.3-2.6-2.5-3-4c-1-4.6-3.7-6.2-8.2-5.9c-4.7,0.3-9.4,0.1-14.7,0.1c0,9.7-0.2,18.8,0.2,27.9c0.1,1.5,2.3,4,3.7,4.1
		c7,0.5,14.3,1.5,20.9,0c4.1-0.9,7.3-6,10.9-9.2c1.4-1.2,2.8-2.4,4.2-3.6C65.7,622.3,66.2,622.7,66.8,623.2z"/>
	<path fill="#FFFFFF" d="M268.6,589c0,7.9,0,15.4,0,22.8c-0.5,0.2-1,0.5-1.4,0.7c-0.9-1.4-2.4-2.7-2.7-4.2c-1-4.4-3.6-5.8-7.8-5.7
		c-4.7,0.2-9.5,0-14.9,0c0,9.8-0.1,19.2,0.2,28.7c0,1.2,2.4,3.3,3.8,3.4c6.8,0.4,13.9,1.5,20.3,0c4.3-1,7.6-6.2,11.4-9.4
		c1.3-1.1,2.8-2,4.2-2.9c0.1,1.7,0.6,3.5,0.3,5c-3.6,14.4-3.7,13.9-18.3,13.4c-12.3-0.4-24.7,0.2-37.1,0.4c-1.7,0-3.4,0-6-1.2
		c1.5-1,2.8-2.6,4.5-3c4-1,5.3-3.3,5.2-7.4c-0.2-18.3-0.2-36.6,0-54.9c0.1-4.5-1.6-6.6-5.8-7.6c-1.5-0.4-2.7-1.8-4.1-2.8
		c0.3-0.6,0.5-1.2,0.8-1.8c8.5,0,17,0,25.5,0c7.8,0,15.6,0.2,23.4-0.1c4.4-0.2,6.2,1.7,6.8,5.7c0.5,3.6,1.1,7.1,2,12.3
		c-2.1-1.4-4.1-2-4.6-3.2c-3.6-8.8-10.8-10.5-19.2-10.2c-4.2,0.2-8.4,0-13,0c0,10.2,0,20.1,0,30.9c5.2,0,10.6-0.6,15.7,0.2
		C265.1,599.5,262.4,589.3,268.6,589z"/>
	<path fill="#FFFFFF" d="M559.8,640.9c2.3-1.8,3.4-3.4,4.7-3.7c4.3-0.9,6.2-3.6,7.7-7.5c8.5-21,17.2-41.9,25.9-62.8
		c0.8-1.9,2.4-3.6,3.6-5.3c1.3,1.8,3.1,3.5,4,5.6c8.2,20.3,16.4,40.6,24.4,60.9c1.7,4.4,3.5,8.5,9,9.1c1.6,0.2,3.2,0.8,4.8,1.3
		c-0.8,0.9-1.6,1.8-2.3,2.7c-9.9,0-19.8,0-31.6,0c2.5-1.9,3.5-3.3,4.7-3.6c4.9-1,4.9-3.7,3.3-7.5c-2.3-5.8-4.3-11.8-6.6-18.1
		c-7.8,0-15.6-0.1-23.3,0.1c-1.3,0-3.2,1.7-3.8,3c-2,4.5-3.4,9.3-5.4,13.8c-2,4.7-2.1,8.1,4,9c1.1,0.2,2,1.2,2.7,3
		C577.8,640.9,569.9,640.9,559.8,640.9z M598.8,578.8c-4,10.2-7.5,18.9-11.1,28.2c7.5,0,14.2,0,21.8,0
		C606,597.7,602.7,589,598.8,578.8z"/>
	<path fill="#FFFFFF" d="M141.8,582.9c-2.3-1.3-4.6-1.8-4.9-2.9c-3-10-9.8-13.8-19.8-13.7c-10.8,0.1-19.8,3.7-25.6,13.3
		c-9,14.9-5.3,38.4,7.7,50c8.1,7.3,17.5,8.7,27.7,6c5.6-1.5,8.5-5.9,10.9-10.9c0.9-2,2.9-3.5,4.4-5.2c0.6,0.4,1.2,0.8,1.9,1.2
		c-1.6,5.9-3,11.9-4.8,17.8c-0.3,0.9-2,1.8-3.1,1.9c-10.1,0.4-20.3,1.9-30.2,0.8c-23.4-2.7-36.5-24-31.1-48.7
		c4.1-18.9,19-31,38.5-30.7c7.4,0.1,14.8,1.1,22.1,2.1c1.4,0.2,3.5,1.8,3.8,3.2C140.3,571.6,140.8,576.5,141.8,582.9z"/>
	<path fill="#FFFFFF" d="M554.9,583.2c-2.5-1.6-4.7-2.1-5-3.2c-2.7-8.5-8.2-13-17.1-13.5c-10.2-0.6-19.4,1.8-26.1,10
		c-13.2,16.3-7.5,46.5,10.6,56.9c13.1,7.5,26.6,3.6,34.1-9.8c0.9-1.6,2.7-2.6,4.1-3.9c0.6,0.4,1.1,0.8,1.7,1.2
		c-1.6,5.9-3.2,11.9-5,17.8c-0.2,0.8-1.7,1.6-2.7,1.7c-10.8,0.3-21.9,2-32.4,0.4c-22.4-3.4-34.7-24.9-29.2-48.5
		c4.5-19.1,18.9-30.8,38.6-30.6c7.2,0.1,14.4,1.2,21.5,1.9c3.3,0.3,4.4,2,4.6,5.3C553,572.9,553.9,577,554.9,583.2z"/>
	<path fill="#FFFFFF" d="M355,582.8c-1.2-1.4-3-2.6-3.6-4.3c-3.2-8.9-9.7-12.1-18.6-12.1c-17.7,0-29.2,10.3-30.7,27.9
		c-1.2,14.2,2.1,27,13.5,36.5c7.8,6.5,16.9,7.5,26.4,4.9c5.6-1.5,8.4-6.1,10.9-11c1-1.9,2.9-3.3,4.4-4.9c0.6,0.4,1.2,0.8,1.8,1.2
		c-1.5,5.8-3,11.6-4.7,17.3c-0.3,0.9-1.6,2-2.4,2c-12.5,0-25.5,2-37.4-0.8c-22.5-5.4-32.5-32.7-21.9-55.5
		c6.7-14.4,18.3-22.2,34.4-22.2c7.8,0,15.5,1.1,23.3,2c1.4,0.2,3.6,1.8,3.9,3.1c1.1,4.8,1.5,9.7,2.2,14.5
		C356.1,581.8,355.5,582.3,355,582.8z"/>
	<path fill="#FFFFFF" d="M396.8,566.7c-7.1,0.7-13.7,0-19,2.3c-4.7,2-7.9,7.4-11.8,11.3c-0.5-0.3-1-0.6-1.6-0.8
		c1-4.7,1.8-9.6,3.2-14.2c0.4-1.2,2.9-2.4,4.4-2.5c20.2-0.2,40.4-0.2,60.6,0.1c1.7,0,4.3,2.2,4.9,4c1.4,3.9,1.9,8.1,3,13.6
		c-2.2-1-4.1-1.2-4.9-2.3c-8.3-11.1-11.4-12.4-27-10.3c-0.1,1.7-0.3,3.6-0.3,5.4c0,18.5,0.2,37-0.1,55.4c-0.1,5.3,1.8,7.7,6.9,8.4
		c1.6,0.2,3,1.5,4.5,2.3c-0.2,0.5-0.4,1.1-0.6,1.6c-11,0-22,0-33,0c-0.3-0.4-0.5-0.8-0.7-1.2c1.4-0.9,2.7-2.5,4.2-2.7
		c6-0.8,7.6-4.1,7.5-9.9c-0.3-17.5-0.1-35-0.1-52.6C396.8,572.5,396.8,570.2,396.8,566.7z"/>
	<path fill="#FFFFFF" d="M154,640c1.4-1,2.7-2.5,4.2-2.8c4.4-0.9,5.6-3.5,5.5-7.8c-0.2-18.1-0.2-36.2,0-54.3c0.1-4.5-1.2-7.2-6-8
		c-1.3-0.2-2.4-1.8-2.9-4c10.4,0,20.7,0,31.1,0c0.3,0.5,0.6,0.9,0.9,1.4c-1.4,0.9-2.8,2.5-4.3,2.7c-5.6,0.8-7.6,3.6-7.5,9.2
		c0.3,17.3,0.2,34.7,0,52c-0.1,5.2,2,7.4,6.9,7.4c3.6,0,7.2,0,10.9,0.1c7.9,0.2,13.5-3,16.6-10.5c0.5-1.3,2.2-2.2,3.3-3.3
		c0.4,1.6,1.2,3.3,1.1,4.9c-0.3,3.4-1.4,6.7-1.7,10.1c-0.3,3.8-2.1,4.5-5.6,4.5c-16.2-0.2-32.3-0.1-48.5-0.2c-1.1,0-2.2-0.1-3.3-0.2
		C154.5,640.9,154.2,640.4,154,640z"/>
	<path fill="#FFFFFF" d="M476.3,641.1c-11,0-20.5,0-31.5,0c2.1-1.9,3.2-3.6,4.5-3.8c4.6-0.9,5.6-3.7,5.6-7.8
		c-0.1-18.3-0.1-36.6,0-54.9c0-3.9-1-6.5-5.3-7.4c-1.4-0.3-2.6-1.9-3.9-3c0.3-0.4,0.6-0.8,0.9-1.2c9.5,0,18.9,0,28.4,0
		c0.3,0.4,0.5,0.8,0.8,1.2c-1.1,1-2.2,2.7-3.4,2.9c-4.9,0.7-6,3.7-5.9,8.1c0.1,17.9,0.1,35.8,0,53.8c0,4.2,0.6,7.4,5.6,8.3
		C473.3,637.4,474.3,639.2,476.3,641.1z"/>
	<path fill="#FFFFFF" d="M422.6,713.6c0.6,17.6,11.4,26.5,25.5,21.9c5.4-1.8,8.3-5.7,10.5-10.5c0.7-1.4,2-2.5,3.6-3.2
		c-0.9,10.3-6.8,16.4-16.1,17.9c-10.5,1.7-19.6-2.1-23.9-10.5c-5.2-10.2-5-20.6-0.3-30.8c4.8-10.1,16.4-14.7,27.1-11.1
		c9.9,3.4,16,14.4,14.1,26.3C449.8,713.6,436.4,713.6,422.6,713.6z M459.5,710c-0.7-12.9-7.9-20.6-18.3-20.3
		c-10.5,0.3-17.9,8.6-17.9,20.3C435.2,710,447.2,710,459.5,710z"/>
	<path fill="#FFFFFF" d="M516.3,738.1c-1.9,0.2-4.3,1.2-5.5,0.4c-2.2-1.5-3.7-4.1-5.9-6.7c-4.4,5.3-10.8,8.6-18.9,8.3
		c-9.7-0.4-15.3-4.7-15.9-12.9c-0.7-8.9,3.7-14.2,13.5-15.9c5-0.9,10.2-1.3,15.3-2c3.9-0.5,6.9-2,7.4-6.5c0.5-4.7-0.2-8.8-4.8-11.2
		c-8-4.3-23.2-2.1-24.6,9.1c-0.1,1.1-1.7,2-2.6,3c-0.5-0.3-0.9-0.5-1.4-0.8c0.2-1.6,0.2-3.2,0.7-4.8c2.5-9,11.2-13.4,23.1-11.8
		c9.7,1.3,13.6,5.9,13.6,16.3c0,8.6,0,17.2,0,25.7c0,6,0,6,5.7,7.9C516.1,736.9,516.2,737.5,516.3,738.1z M505.9,711.3
		c-7.7,1-15,1.7-22.3,3.1c-6.8,1.3-10.1,5.7-9.7,12c0.4,5.9,4.2,9.4,11,10.1C499.5,738.1,507.9,728.1,505.9,711.3z"/>
	<path fill="#FFFFFF" d="M11.3,667.7c0.5,1.5,1.4,3,1.4,4.5c0.1,7.8,0.1,15.6,0.1,24.6c1.5-1.7,2.4-2.7,3.3-3.6
		c5.7-6.5,14.5-8.7,22.9-5.8c6.8,2.4,10.3,7.7,10.4,17.3c0.2,10.1,0.1,20.2,0,30.3c0,1.3-1.3,2.5-2,3.8c-0.5-1.2-1.5-2.5-1.5-3.7
		c-0.1-9.5,0-19.1-0.1-28.6c-0.2-10.5-4.3-15.9-12.6-16.7c-9.4-0.9-17.6,4.5-19.2,14.1c-1.3,7.4-0.9,15.2-1.2,22.8
		c-0.1,2.9,0.1,5.7-0.1,8.6c-0.1,1.2-1,2.4-1.6,3.6c-0.7-1.1-1.9-2.2-1.9-3.3c-0.1-21.7-0.1-43.4,0-65.2c0-0.7,0.4-1.4,0.6-2.1
		C10.2,668,10.8,667.9,11.3,667.7z"/>
	<path fill="#FFFFFF" d="M616.9,733.6c4.4-11.8,8.4-22.4,12.4-33c1.3-3.4,2.3-6.9,3.8-10.1c0.7-1.4,2.3-2.4,3.6-3.6
		c0.5,0.4,1.1,0.8,1.6,1.2c-3.7,9.7-7.4,19.3-11.2,29c-4.3,11-8.5,22-13,32.9c-2.8,6.8-7.9,8.6-16.3,5.9c1.5-0.9,2.3-1.8,3.3-2
		c10.5-2.3,15.2-11.4,11-21.3c-6.2-14.7-12.3-29.5-18.5-44.2c0.4-0.4,0.9-0.9,1.3-1.3c1.4,1.3,3.4,2.3,4.1,3.9
		c5.2,12.3,10.2,24.6,15.2,37C614.9,729.4,615.7,730.8,616.9,733.6z"/>
	<path fill="#FFFFFF" d="M235,687.3c0.4,2.7,0.8,5.4,1.3,8.8c1.3-1.4,2.4-2.7,3.6-3.9c6.6-6.4,14.4-7.5,22.7-4.6
		c7.6,2.7,9.8,9.1,9.9,16.4c0.2,10.1,0.1,20.2,0,30.3c0,1.5-1.3,2.9-2,4.4c-0.5-1.4-1.5-2.8-1.6-4.2c-0.1-9.1,0-18.3-0.1-27.4
		c-0.1-11.1-4.1-16.5-12.5-17.4c-9.8-1-18.2,4.8-19.5,15.1c-1.2,8.8-0.7,17.8-1,26.8c0,1.5,0.2,3.1-0.1,4.5c-0.2,1-1.3,1.8-2,2.6
		c-0.5-0.9-1.5-1.7-1.5-2.6c-0.1-5.9-0.1-11.8-0.1-17.7c0-9.7,0.1-19.4,0.1-29.1c0-0.5,0.3-1.1,0.5-1.6
		C233.5,687.6,234.3,687.4,235,687.3z"/>
	<path fill="#FFFFFF" d="M561.7,687.7c0,17,0,34,0,50.9c-0.7,0.2-1.4,0.3-2.1,0.5c-0.6-2.9-1.2-5.9-1.8-9.2
		c-6,8.8-14.1,11.8-24.3,9.3c-6-1.5-10.5-5.3-10.8-11.2c-0.7-13.4-0.2-26.9-0.2-40.3c0.5-0.2,0.9-0.3,1.4-0.5c0.5,1.5,1.4,3,1.4,4.5
		c0.1,7.6,0.1,15.3,0.1,22.9c0,2.1,0,4.2,0.1,6.3c0.4,9.3,4.1,14.3,11.3,15.6c8.3,1.4,16.5-2.8,19.4-10.7c1.4-3.7,2-7.8,2.2-11.7
		c0.3-7.4,0-14.9,0.2-22.3c0-1.5,0.9-3.1,1.4-4.6C560.5,687.3,561.1,687.5,561.7,687.7z"/>
	<path fill="#FFFFFF" d="M592,736.8c-10,3.4-14.9-0.2-15.1-9.6c-0.1-9.9,0-19.8,0-29.7c0-2,0-4.1,0-6.4c-3.4-0.2-6.2-0.4-8.9-0.6
		c-0.2-0.6-0.3-1.2-0.5-1.9c2.9-0.7,5.8-1.3,9.4-2.2c0-3.6-0.1-7.5,0.1-11.4c0.1-1.2,1.1-2.4,1.8-3.6c0.7,1.2,2,2.5,2.1,3.8
		c0.3,3.8,0.1,7.5,0.1,11.8c3.9,0.2,7.4,0.4,10.9,0.6c0.1,0.7,0.2,1.4,0.3,2.1c-3.4,0.5-6.8,1.1-11.2,1.8c0,5.6,0,11.6,0,17.6
		c0,5.7,0.1,11.4,0,17.1c-0.1,5.6,1.9,9.2,8.1,9.2C590.1,735.5,591,736.4,592,736.8z"/>
	<path fill="#FFFFFF" d="M130.6,697.5c5.7-7,11.8-10.4,19.3-9.9c0.3,0.7,0.5,1.5,0.8,2.2c-1.1,0.4-2.1,1-3.3,1.3
		c-11.3,2.5-16.5,8.7-16.8,20.3c-0.2,7.4,0.1,14.8-0.2,22.3c-0.1,1.7-1.2,3.4-1.9,5c-0.6-1.6-1.6-3.2-1.6-4.7
		c-0.1-13.9-0.1-27.8,0-41.7c0-1.6,1-3.2,1.6-4.8c0.7,1.7,1.5,3.3,2,5C130.9,693.7,130.6,695,130.6,697.5z"/>
	<path fill="#FFFFFF" d="M115.6,713.1c0,7.2,0.1,14.5-0.1,21.7c0,1.4-1.1,2.7-1.7,4c-0.7-1.2-2.1-2.5-2.1-3.7
		c-0.1-14.5-0.1-28.9,0-43.4c0-1.4,1.2-2.8,1.8-4.1c0.7,1.5,1.9,2.9,1.9,4.4C115.7,699,115.6,706,115.6,713.1z"/>
	<path fill="#FFFFFF" d="M116.5,673.5c-1.1,1.7-2.1,3.1-3,4.6c-0.6-1.7-1.7-3.5-1.6-5.2c0-1.6,1.3-3.2,2-4.9
		C114.7,669.7,115.5,671.3,116.5,673.5z"/>
	<path fill="#FFFFFF" d="M327,673c0-1.6-1.4-3.3-2.1-4.9c-0.6,1.6-1.7,3.1-1.8,4.7c-0.2,7.7-0.1,15.4-0.1,23.1
		c-0.8,0.1-1.1,0.2-1.2,0.1c-0.4-0.4-0.7-0.9-1.1-1.3c-5.8-7.4-13.4-9.7-22.3-7.7c-8.7,1.9-14.4,7.7-15.7,16.1
		c-1.1,7-1.2,14.5,0.3,21.3c2.3,10.8,11,16.2,22.1,15.7c7.4-0.3,12.6-4.4,17.5-10.3c0.3,2,0.2,3.2,0.6,4.2c0.6,1.7,1.4,3.2,2.2,4.8
		c0.6-1.6,1.7-3.1,1.7-4.7C327.1,713.7,327.2,693.3,327,673z M303.1,736.6c-0.2,0-0.4,0-0.6,0c-10.5-0.7-17.6-10.2-17.5-23.5
		c0.1-13.8,6.7-22.7,17.5-23.4c10.3-0.7,18.1,6.3,20,17.8c0.3,1.9,0.3,3.8,0.4,5.2C323.1,727.5,315,737.1,303.1,736.6z"/>
	<path fill="#FFFFFF" d="M404.9,727.7c-0.6,1.1-1.3,2.1-2,3C403.6,729.8,404.3,728.8,404.9,727.7z"/>
	<path fill="#FFFFFF" d="M103.8,736.1c-5.7-0.4-5.5-4.4-5.5-8.6c0.1-9,0.2-17.9,0-26.9c-0.1-7.8-3.5-12.2-11.2-13.6
		c-4.2-0.7-8.8-0.8-13,0c-8.7,1.6-12.4,6.4-12.1,16.6c1-0.9,2.4-1.6,2.8-2.7c3.9-9.9,12.8-13.9,22.9-10.1c5.3,2,7.1,5.8,6.7,11.2
		c-0.4,5.5-4,6.9-8.5,7.5c-5.3,0.7-10.6,1-15.8,2c-7.8,1.4-12.1,6.9-12.1,14.3c0.1,7.9,4,12.4,12.4,13.8c9.3,1.6,17.2-1.1,23.2-8.9
		c2.2,8.1,4.4,9.4,10.6,6.8C104.1,737,104,736.1,103.8,736.1z M74.1,736.6c-7.5-0.4-11.7-3.9-12.1-10.2c-0.4-6.4,3-10.8,10.3-12.1
		c7.1-1.2,14.2-1.9,21.7-2.9C95.8,727.9,88.3,737.3,74.1,736.6z"/>
	<path fill="#FFFFFF" d="M224.8,735.9c-5.8-0.2-5.2-4.3-5.2-8.2c0-8.4,0-16.7,0-25.1c0-10.2-4-15-13.6-16.2
		c-12-1.6-20.6,2.8-23.1,11.9c-0.4,1.5-0.5,3.2-0.7,4.8c0.4,0.3,0.9,0.5,1.3,0.8c0.9-1,2.3-1.8,2.7-3c3.8-10,14.4-14.2,24-9.4
		c4.9,2.4,5.8,6.5,5.4,11.5c-0.5,5-4,6.1-7.9,6.6c-5.3,0.7-10.6,1-15.8,2c-8.8,1.6-13.1,7.3-12.5,15.6c0.7,8,5.7,12.5,14.6,13
		c8.3,0.5,15.4-2,21-9.7c0.8,7,4,9.7,10.9,7.9C225.4,737,225.1,735.9,224.8,735.9z M215.1,723c-2.4,11.4-16.8,17.5-26.8,11.7
		c-6.6-3.8-6.9-14.2-0.3-18.2c2.5-1.5,5.6-2.2,8.6-2.7c6.1-1,12.4-1.6,19.5-2.5C215.7,715.5,215.8,719.4,215.1,723z"/>
	<path fill="#FFFFFF" d="M367,734c0,1.6,1.1,3.1,1.7,4.7c0.7-1.6,1.6-3.2,2.2-4.8c0.4-1,0.3-2.2,0.6-4.2c4.9,5.9,10.1,10,17.5,10.3
		c11.1,0.4,19.8-4.9,22.1-15.7c1.5-6.9,1.4-14.4,0.3-21.3c-1.3-8.5-7-14.2-15.7-16.1c-8.9-1.9-16.6,0.3-22.3,7.7
		c-0.3,0.5-0.7,0.9-1.1,1.3c-0.1,0.1-0.4,0-1.2-0.1c0-7.6,0.1-15.4-0.1-23.1c0-1.6-1.2-3.1-1.8-4.7c-0.7,1.6-2.1,3.3-2.1,4.9
		C366.8,693.3,366.8,713.7,367,734z M371,712.6c0.1-1.4,0.1-3.3,0.4-5.2c1.9-11.5,9.7-18.5,20-17.8c10.8,0.7,17.4,9.5,17.5,23.4
		c0.1,13.3-7,22.8-17.5,23.5c-0.2,0-0.4,0-0.6,0C379,737.1,370.9,727.5,371,712.6z"/>
</g>
<g id="belso">
	<path fill="#FFFFFF" d="M281.8,211.9c8.7,0,15.4,0.1,22,0c15.1-0.2,30.1-0.2,45.2-0.7c4.4-0.1,6.2,1.4,6.7,5.6
		c0.8,5.8,2,11.6,3.3,19.5c-2.8-1.9-5.2-2.6-5.8-4.1c-4.4-10.9-12.9-14.2-23.8-13.7c-6,0.3-12.1,0.1-18.4,0.1c0,13.4,0,25.9,0,39.1
		c8,0,15.7,0.1,23.5,0c4.7-0.1,4.9-4.2,5.7-7.4c0.8-3,1.6-5.6,5.7-4.1c0,10.1,0,20.1,0,30.1c-3.6,1.2-5-0.5-5.5-3.7
		c-0.9-6.2-4.3-8.6-10.7-8c-6,0.6-12.1,0.1-18.9,0.1c0,12.5-0.2,24.5,0.2,36.4c0.1,1.5,3.3,3.8,5.3,4c7.6,0.7,15.2,1.1,22.8,0.7
		c9-0.5,14.2-6.6,18.1-14c1.6-3.1,3.3-5.3,7-2.2c-1.8,6.6-3.4,13.2-5.5,19.7c-0.5,1.6-2.6,3.8-3.9,3.9c-23.6,0.2-47.2,0.2-70.7,0.2
		c-1.7-4.1,0.4-5,3.3-5.8c8.3-2.1,8.3-2.2,8.3-10.8c0-22.7,0-45.4,0-68.1c0-9.1,0-9-8.8-11.7C285.4,216.4,284.2,214.3,281.8,211.9z"
		/>
	<path fill="#FFFFFF" d="M339.5,347.3c1.1-0.7,1.5-1,1.7-1c14.1,2,23.7-5,32.5-15c7.7-8.7,16.1-16.8,24.6-24.7
		c6.7-6.3,10.4-13.4,9.5-22.7c-0.1-1.3,0.2-2.6,0.2-4c14.3,6.4,17.3,14.8,6.4,28.2c-5.5,6.8-12.2,12.5-18.4,18.7
		c-8.6,8.6-17,17.5-26,25.6c-3.5,3.1-8.4,5-13,6.2C347.7,361.1,344.9,352.4,339.5,347.3z"/>
	<path fill="#FFFFFF" d="M407.9,245c0-3.1,0-5.6,0-8c0-6.6-2.4-12.1-7.1-16.8c-10.9-10.8-21.9-21.7-32.6-32.8
		c-6.2-6.4-13.2-10.1-22.3-9.2c-1.9,0.2-3.8,0-5.8,0c6.8-15.3,18.6-17.1,30.6-6c14.9,13.9,29.4,28.2,43.2,43.1
		C423.9,226.2,425.1,236.2,407.9,245z"/>
	<path fill="#FFFFFF" d="M240.3,278.2c0,5.7-0.9,10,0.2,13.6c1.5,4.5,3.9,9.2,7.2,12.6c10.2,10.8,21.1,20.9,31.3,31.7
		c6.6,7,14,11,23.7,10c1.3-0.1,2.7,0,4,0.1c0.3,0,0.6,0.3,0.9,0.5c-7.7,15.3-18.7,16.1-29.9,5.8c-15.5-14.1-30-29.3-44.5-44.5
		c-2.8-3-4.6-7.4-5.7-11.5C225,286.7,233.6,284,240.3,278.2z"/>
	<path fill="#FFFFFF" d="M308.3,178.2c-18.8-4.6-27.9,8.7-38.5,19.3c-6.6,6.6-13,13.4-19.9,19.7c-7.1,6.5-10.9,14-10,23.7
		c0.1,1.2-0.1,2.5-0.2,3.9c-17.9-8.4-14-21.3-4.9-30.3c14-13.8,27.6-28,41.8-41.5c3.6-3.5,8.8-5.9,13.7-7.3
		C299.9,163.1,303.1,171.7,308.3,178.2z"/>
</g>
<g id="kulso">
	<g>
		<path fill="#FFFFFF" d="M438.3,394.5c-2.7-24.4-22.3-39.8-45.3-35.6c-19.3,3.5-29,23.5-19.4,40.2c3.2,5.6,8,9.2,14.5,9.9
			c6.6,0.7,13.6-3.8,15.2-9.6c1.7-6.2-1.5-12.8-7.6-15.6c-6.2-2.9-12.4-0.8-16.7,5.5c-0.4,0.6-0.8,1.1-1.5,1.9
			c-1.7-9.5,3.5-17.8,12.6-20.7c13.3-4.3,28.4,1.7,36.8,15.2c6.6,10.5,8.8,22,1.5,32.9c-7.4,11-18.8,14.6-31.7,12.4
			c-11.2-1.9-18.3-9.8-23.6-19.2c-5.3-9.4-12.4-16.8-21.5-22.4c-1.4-0.9-2.9-2.7-3-4.2c-1.4-17.5-13-28.5-25.2-40.4
			c-3.8,4.1-7.3,7.6-10.4,11.4c-7.2,8.5-13.7,17.4-13.9,29.3c0,1.2-1.7,2.8-3,3.6c-9.2,5.8-16.2,13.5-22,22.8
			c-3.6,5.8-8.6,11.4-14.2,15.3c-14.2,9.9-38,2.2-43.4-13.3c-7.7-22.2,13.4-47.9,36.7-44.5c11.5,1.7,19,11.1,16.8,21.7
			c-0.8-1.2-1.4-2.1-2-3c-3.9-5.2-9.3-6.9-15.1-4.8c-5.6,2.1-9.3,7.4-9,13.2c0.2,5.5,4.1,10,10.1,11.7c6.5,1.8,12.1,0.1,16.7-4.6
			c11.9-12.3,8.4-33.5-6.8-41.5c-8.5-4.5-17.5-5.1-26.6-2.4c-23.7,6.8-34.9,34.4-24.1,58.8c7.9,17.6,24.5,26.4,43.3,22.9
			c9.6-1.8,17-7.1,23.2-15.7c0.6,2.7,1.1,4.5,1.3,6.2c1,11.2,4.8,21.6,10.5,31.2c9.7,16.4,20,32.4,26.4,50.6c0.8,2.2,4.1,5.1,6,4.9
			c2.3-0.3,5.1-3,6.4-5.4c8.2-15.4,15.8-31.2,24.2-46.5c6.2-11.3,11.5-22.8,12.6-35.8c0.1-1.4,0.7-2.9,1.2-4.9
			c1.2,1.4,1.9,2.2,2.6,3.1c8.4,10.4,19.6,14.5,32.5,13C426.1,439.3,441,418.6,438.3,394.5z M312.6,368.4c3.1-4.2,7.1-7.8,11.6-12.7
			c4.6,5.3,8.8,9.4,12.1,14.2c5,7.3,5.6,15.4,1.1,23.2c-4,6.9-8.5,13.5-13.4,21.3c-5.3-8.6-10.6-16.2-14.6-24.5
			C305.7,382.5,307.8,374.9,312.6,368.4z M324.3,500.3c-21.3-17.9-27.7-61.6-12.7-87.5c0.6-0.2,1.3-0.4,1.9-0.6
			c2.5,6.4,5,12.9,7.7,19.2c0.6,1.5,1.9,2.8,2.8,4.1c1-1.4,2.2-2.7,2.8-4.3c2.6-6.3,5.1-12.7,8.1-20.3
			C350.7,439.1,347.4,471.5,324.3,500.3z"/>
		<path fill="#FFFFFF" d="M324.2,362.9c-18.6,14.2-14.9,28.2,0.3,44.2C338.9,388.9,342.3,378.1,324.2,362.9z"/>
	</g>
	<g>
		<path fill="#FFFFFF" d="M453.6,147.9c-24.4,2.7-39.8,22.3-35.6,45.3c3.5,19.3,23.5,29,40.2,19.4c5.6-3.2,9.2-8,9.9-14.5
			c0.7-6.6-3.8-13.6-9.6-15.2c-6.2-1.7-12.8,1.5-15.6,7.6c-2.9,6.2-0.8,12.4,5.5,16.7c0.6,0.4,1.1,0.8,1.9,1.5
			c-9.5,1.7-17.8-3.5-20.7-12.6c-4.3-13.3,1.7-28.4,15.2-36.8c10.5-6.6,22-8.8,32.9-1.5c11,7.4,14.6,18.8,12.4,31.7
			c-1.9,11.2-9.8,18.3-19.2,23.6c-9.4,5.3-16.8,12.4-22.4,21.5c-0.9,1.4-2.7,2.9-4.2,3c-17.5,1.4-28.5,13-40.4,25.2
			c4.1,3.8,7.6,7.3,11.4,10.4c8.5,7.2,17.4,13.7,29.3,13.9c1.2,0,2.8,1.7,3.6,3c5.8,9.2,13.5,16.2,22.8,22
			c5.8,3.6,11.4,8.6,15.3,14.2c9.9,14.2,2.2,38-13.3,43.4c-22.2,7.7-47.9-13.4-44.5-36.7c1.7-11.5,11.1-19,21.7-16.8
			c-1.2,0.8-2.1,1.4-3,2c-5.2,3.9-6.9,9.3-4.8,15.1c2.1,5.6,7.4,9.3,13.2,9c5.5-0.2,10-4.1,11.7-10.1c1.8-6.5,0.1-12.1-4.6-16.7
			c-12.3-11.9-33.5-8.4-41.5,6.8c-4.5,8.5-5.1,17.5-2.4,26.6c6.8,23.7,34.4,34.9,58.8,24.1c17.6-7.9,26.4-24.5,22.9-43.3
			c-1.8-9.6-7.1-17-15.7-23.2c2.7-0.6,4.5-1.1,6.2-1.3c11.2-1,21.6-4.8,31.2-10.5c16.4-9.7,32.4-20,50.6-26.4c2.2-0.8,5.1-4.1,4.9-6
			c-0.3-2.3-3-5.1-5.4-6.4c-15.4-8.2-31.2-15.8-46.5-24.2c-11.3-6.2-22.8-11.5-35.8-12.6c-1.4-0.1-2.9-0.7-4.9-1.2
			c1.4-1.2,2.2-1.9,3.1-2.6c10.4-8.4,14.5-19.6,13-32.5C498.5,160.2,477.8,145.2,453.6,147.9z M427.6,273.7
			c-4.2-3.1-7.8-7.1-12.7-11.6c5.3-4.6,9.4-8.8,14.2-12.1c7.3-5,15.4-5.6,23.2-1.1c6.9,4,13.5,8.5,21.3,13.4
			c-8.6,5.3-16.2,10.6-24.5,14.6C441.7,280.6,434,278.4,427.6,273.7z M559.5,261.9c-17.9,21.3-61.6,27.7-87.5,12.7
			c-0.2-0.6-0.4-1.3-0.6-1.9c6.4-2.5,12.9-5,19.2-7.7c1.5-0.6,2.8-1.9,4.1-2.8c-1.4-1-2.7-2.2-4.3-2.8c-6.3-2.6-12.7-5.1-20.3-8.1
			C498.3,235.6,530.7,238.9,559.5,261.9z"/>
		<path fill="#FFFFFF" d="M422.1,262.1c14.2,18.6,28.2,14.9,44.2-0.3C448.1,247.4,437.3,244,422.1,262.1z"/>
	</g>
	<g>
		<path fill="#FFFFFF" d="M146.9,182.6c-1.5,12.9,2.6,24.1,13,32.5c0.9,0.7,1.7,1.4,3.1,2.6c-2.1,0.5-3.5,1.1-4.9,1.2
			c-13,1.1-24.5,6.3-35.8,12.6c-15.3,8.4-31.1,16-46.5,24.2c-2.4,1.3-5.1,4-5.4,6.4c-0.2,1.8,2.7,5.2,4.9,6
			c18.2,6.4,34.2,16.6,50.6,26.4c9.6,5.7,19.9,9.5,31.2,10.5c1.8,0.2,3.6,0.7,6.2,1.3c-8.6,6.2-13.9,13.6-15.7,23.2
			c-3.6,18.8,5.2,35.4,22.9,43.3c24.4,10.8,52-0.4,58.8-24.1c2.6-9.1,2.1-18.1-2.4-26.6c-8.1-15.3-29.3-18.8-41.5-6.8
			c-4.8,4.6-6.4,10.2-4.6,16.7c1.6,6,6.1,9.9,11.7,10.1c5.8,0.2,11.2-3.4,13.2-9c2.1-5.8,0.4-11.2-4.8-15.1c-0.9-0.6-1.8-1.2-3-2
			c10.6-2.2,20,5.2,21.7,16.8c3.4,23.3-22.2,44.4-44.5,36.7c-15.5-5.4-23.2-29.2-13.3-43.4c3.9-5.6,9.5-10.6,15.3-14.2
			c9.3-5.8,16.9-12.9,22.8-22c0.8-1.3,2.4-3,3.6-3c11.9-0.2,20.8-6.7,29.3-13.9c3.8-3.2,7.3-6.7,11.4-10.4
			c-11.9-12.2-22.8-23.8-40.4-25.2c-1.5-0.1-3.3-1.7-4.2-3c-5.6-9.1-13.1-16.2-22.4-21.5c-9.3-5.3-17.3-12.4-19.2-23.6
			c-2.2-12.8,1.4-24.3,12.4-31.7c10.8-7.3,22.3-5,32.9,1.5c13.5,8.4,19.5,23.5,15.2,36.8c-2.9,9.1-11.2,14.3-20.7,12.6
			c0.9-0.7,1.4-1.1,1.9-1.5c6.3-4.3,8.4-10.4,5.5-16.7c-2.8-6-9.5-9.3-15.6-7.6c-5.8,1.6-10.3,8.6-9.6,15.2
			c0.7,6.6,4.2,11.3,9.9,14.5c16.7,9.6,36.7,0,40.2-19.4c4.2-22.9-11.2-42.5-35.6-45.3C170.2,145,149.5,159.9,146.9,182.6z
			 M198.9,276.7c-8.2-4-15.8-9.4-24.5-14.6c7.8-5,14.4-9.5,21.3-13.4c7.8-4.5,15.9-3.9,23.2,1.1c4.8,3.3,8.9,7.5,14.2,12.1
			c-4.9,4.5-8.5,8.5-12.7,11.6C214,278.2,206.3,280.3,198.9,276.7z M177.8,251c-7.6,3-14,5.4-20.3,8.1c-1.5,0.6-2.8,1.9-4.3,2.8
			c1.4,1,2.6,2.2,4.1,2.8c6.4,2.7,12.8,5.1,19.2,7.7c-0.2,0.6-0.4,1.3-0.6,1.9c-26,15-69.6,8.7-87.5-12.7
			C117.3,238.6,149.7,235.3,177.8,251z"/>
		<path fill="#FFFFFF" d="M181.7,261.6c16,15.1,30,18.8,44.2,0.3C210.7,243.7,199.9,247.1,181.7,261.6z"/>
	</g>
	<g>
		<path fill="#FFFFFF" d="M209.6,131.6c2.7,24.4,22.3,39.8,45.3,35.6c19.3-3.5,29-23.5,19.4-40.2c-3.2-5.6-8-9.2-14.5-9.9
			c-6.6-0.7-13.6,3.8-15.2,9.6c-1.7,6.2,1.5,12.8,7.6,15.6c6.2,2.9,12.4,0.8,16.7-5.5c0.4-0.6,0.8-1.1,1.5-1.9
			c1.7,9.5-3.5,17.8-12.6,20.7c-13.3,4.3-28.4-1.7-36.8-15.2c-6.6-10.5-8.8-22-1.5-32.9c7.4-11,18.8-14.6,31.7-12.4
			c11.2,1.9,18.3,9.8,23.6,19.2c5.3,9.4,12.4,16.8,21.5,22.4c1.4,0.9,2.9,2.7,3,4.2c1.4,17.5,13,28.5,25.2,40.4
			c3.8-4.1,7.3-7.6,10.4-11.4c7.2-8.5,13.7-17.4,13.9-29.3c0-1.2,1.7-2.8,3-3.6c9.2-5.8,16.2-13.5,22-22.8
			c3.6-5.8,8.6-11.4,14.2-15.3c14.2-9.9,38-2.2,43.4,13.3c7.7,22.2-13.4,47.9-36.7,44.5c-11.5-1.7-19-11.1-16.8-21.7
			c0.8,1.2,1.4,2.1,2,3c3.9,5.2,9.3,6.9,15.1,4.8c5.6-2.1,9.3-7.4,9-13.2c-0.2-5.5-4.1-10-10.1-11.7c-6.5-1.8-12.1-0.1-16.7,4.6
			c-11.9,12.3-8.4,33.5,6.8,41.5c8.5,4.5,17.5,5.1,26.6,2.4c23.7-6.8,34.9-34.4,24.1-58.8c-7.9-17.6-24.5-26.4-43.3-22.9
			c-9.6,1.8-17,7.1-23.2,15.7c-0.6-2.7-1.1-4.5-1.3-6.2c-1-11.2-4.8-21.6-10.5-31.2c-9.7-16.4-20-32.4-26.4-50.6
			c-0.8-2.2-4.1-5.1-6-4.9c-2.3,0.3-5.1,3-6.4,5.4c-8.2,15.4-15.8,31.2-24.2,46.5c-6.2,11.3-11.5,22.8-12.6,35.8
			c-0.1,1.4-0.7,2.9-1.2,4.9c-1.2-1.4-1.9-2.2-2.6-3.1c-8.4-10.4-19.6-14.5-32.5-13C221.9,86.8,206.9,107.5,209.6,131.6z
			 M335.3,157.6c-3.1,4.2-7.1,7.8-11.6,12.7c-4.6-5.3-8.8-9.4-12.1-14.2c-5-7.3-5.6-15.4-1.1-23.2c4-6.9,8.5-13.5,13.4-21.3
			c5.3,8.6,10.6,16.2,14.6,24.5C342.3,143.6,340.1,151.2,335.3,157.6z M323.6,25.7c21.3,17.9,27.7,61.6,12.7,87.5
			c-0.6,0.2-1.3,0.4-1.9,0.6c-2.5-6.4-5-12.9-7.7-19.2c-0.6-1.5-1.9-2.8-2.8-4.1c-1,1.4-2.2,2.7-2.8,4.3c-2.6,6.3-5.1,12.7-8.1,20.3
			C297.3,87,300.5,54.5,323.6,25.7z"/>
		<path fill="#FFFFFF" d="M323.8,163.1c18.6-14.2,14.9-28.2-0.3-44.2C309,137.1,305.7,147.9,323.8,163.1z"/>
	</g>
</g>
</svg>
